<mxfile host="app.diagrams.net" modified="2024-01-15T13:45:27.944Z" agent="Mozilla/5.0 (Macintosh; Intel Mac OS X 10_15_7) AppleWebKit/605.1.15 (KHTML, like Gecko) Version/17.2.1 Safari/605.1.15" etag="RLk5bAGLNQEMMMxpAkzZ" version="22.1.18" type="github">
  <diagram id="C5RBs43oDa-KdzZeNtuy" name="database">
    <mxGraphModel dx="658" dy="446" grid="1" gridSize="10" guides="1" tooltips="1" connect="1" arrows="1" fold="1" page="1" pageScale="1" pageWidth="827" pageHeight="1169" math="0" shadow="0">
      <root>
        <mxCell id="WIyWlLk6GJQsqaUBKTNV-0" />
        <mxCell id="WIyWlLk6GJQsqaUBKTNV-1" parent="WIyWlLk6GJQsqaUBKTNV-0" />
        <mxCell id="3E4DCQ-G_xNgGUAY1IOB-55" value="USERS" style="swimlane;fontStyle=0;childLayout=stackLayout;horizontal=1;startSize=26;fillColor=none;horizontalStack=0;resizeParent=1;resizeParentMax=0;resizeLast=0;collapsible=1;marginBottom=0;whiteSpace=wrap;html=1;" vertex="1" parent="WIyWlLk6GJQsqaUBKTNV-1">
          <mxGeometry x="210" y="170" width="140" height="156" as="geometry" />
        </mxCell>
        <mxCell id="3E4DCQ-G_xNgGUAY1IOB-56" value="+ id: INT" style="text;strokeColor=none;fillColor=none;align=left;verticalAlign=top;spacingLeft=4;spacingRight=4;overflow=hidden;rotatable=0;points=[[0,0.5],[1,0.5]];portConstraint=eastwest;whiteSpace=wrap;html=1;" vertex="1" parent="3E4DCQ-G_xNgGUAY1IOB-55">
          <mxGeometry y="26" width="140" height="26" as="geometry" />
        </mxCell>
        <mxCell id="3E4DCQ-G_xNgGUAY1IOB-57" value="+ username: STR" style="text;strokeColor=none;fillColor=none;align=left;verticalAlign=top;spacingLeft=4;spacingRight=4;overflow=hidden;rotatable=0;points=[[0,0.5],[1,0.5]];portConstraint=eastwest;whiteSpace=wrap;html=1;" vertex="1" parent="3E4DCQ-G_xNgGUAY1IOB-55">
          <mxGeometry y="52" width="140" height="26" as="geometry" />
        </mxCell>
        <mxCell id="3E4DCQ-G_xNgGUAY1IOB-58" value="+ password: STR" style="text;strokeColor=none;fillColor=none;align=left;verticalAlign=top;spacingLeft=4;spacingRight=4;overflow=hidden;rotatable=0;points=[[0,0.5],[1,0.5]];portConstraint=eastwest;whiteSpace=wrap;html=1;" vertex="1" parent="3E4DCQ-G_xNgGUAY1IOB-55">
          <mxGeometry y="78" width="140" height="26" as="geometry" />
        </mxCell>
        <mxCell id="3E4DCQ-G_xNgGUAY1IOB-59" value="+ email: STR" style="text;strokeColor=none;fillColor=none;align=left;verticalAlign=top;spacingLeft=4;spacingRight=4;overflow=hidden;rotatable=0;points=[[0,0.5],[1,0.5]];portConstraint=eastwest;whiteSpace=wrap;html=1;" vertex="1" parent="3E4DCQ-G_xNgGUAY1IOB-55">
          <mxGeometry y="104" width="140" height="26" as="geometry" />
        </mxCell>
        <mxCell id="3E4DCQ-G_xNgGUAY1IOB-60" value="+ role_id: FK&amp;nbsp;" style="text;strokeColor=none;fillColor=none;align=left;verticalAlign=top;spacingLeft=4;spacingRight=4;overflow=hidden;rotatable=0;points=[[0,0.5],[1,0.5]];portConstraint=eastwest;whiteSpace=wrap;html=1;" vertex="1" parent="3E4DCQ-G_xNgGUAY1IOB-55">
          <mxGeometry y="130" width="140" height="26" as="geometry" />
        </mxCell>
        <mxCell id="3E4DCQ-G_xNgGUAY1IOB-61" value="ROLES" style="swimlane;fontStyle=0;childLayout=stackLayout;horizontal=1;startSize=26;fillColor=none;horizontalStack=0;resizeParent=1;resizeParentMax=0;resizeLast=0;collapsible=1;marginBottom=0;whiteSpace=wrap;html=1;" vertex="1" parent="WIyWlLk6GJQsqaUBKTNV-1">
          <mxGeometry x="520" y="207" width="140" height="78" as="geometry" />
        </mxCell>
        <mxCell id="3E4DCQ-G_xNgGUAY1IOB-62" value="+ id: INT" style="text;strokeColor=none;fillColor=none;align=left;verticalAlign=top;spacingLeft=4;spacingRight=4;overflow=hidden;rotatable=0;points=[[0,0.5],[1,0.5]];portConstraint=eastwest;whiteSpace=wrap;html=1;" vertex="1" parent="3E4DCQ-G_xNgGUAY1IOB-61">
          <mxGeometry y="26" width="140" height="26" as="geometry" />
        </mxCell>
        <mxCell id="3E4DCQ-G_xNgGUAY1IOB-63" value="+ name: STR" style="text;strokeColor=none;fillColor=none;align=left;verticalAlign=top;spacingLeft=4;spacingRight=4;overflow=hidden;rotatable=0;points=[[0,0.5],[1,0.5]];portConstraint=eastwest;whiteSpace=wrap;html=1;" vertex="1" parent="3E4DCQ-G_xNgGUAY1IOB-61">
          <mxGeometry y="52" width="140" height="26" as="geometry" />
        </mxCell>
        <mxCell id="3E4DCQ-G_xNgGUAY1IOB-67" value="LETTERS" style="swimlane;fontStyle=0;childLayout=stackLayout;horizontal=1;startSize=26;fillColor=none;horizontalStack=0;resizeParent=1;resizeParentMax=0;resizeLast=0;collapsible=1;marginBottom=0;whiteSpace=wrap;html=1;" vertex="1" parent="WIyWlLk6GJQsqaUBKTNV-1">
          <mxGeometry x="210" y="440" width="140" height="130" as="geometry" />
        </mxCell>
        <mxCell id="3E4DCQ-G_xNgGUAY1IOB-68" value="+ id: INT" style="text;strokeColor=none;fillColor=none;align=left;verticalAlign=top;spacingLeft=4;spacingRight=4;overflow=hidden;rotatable=0;points=[[0,0.5],[1,0.5]];portConstraint=eastwest;whiteSpace=wrap;html=1;" vertex="1" parent="3E4DCQ-G_xNgGUAY1IOB-67">
          <mxGeometry y="26" width="140" height="26" as="geometry" />
        </mxCell>
        <mxCell id="3E4DCQ-G_xNgGUAY1IOB-69" value="+ title: STR" style="text;strokeColor=none;fillColor=none;align=left;verticalAlign=top;spacingLeft=4;spacingRight=4;overflow=hidden;rotatable=0;points=[[0,0.5],[1,0.5]];portConstraint=eastwest;whiteSpace=wrap;html=1;" vertex="1" parent="3E4DCQ-G_xNgGUAY1IOB-67">
          <mxGeometry y="52" width="140" height="26" as="geometry" />
        </mxCell>
        <mxCell id="3E4DCQ-G_xNgGUAY1IOB-70" value="+ secret_content: STR" style="text;strokeColor=none;fillColor=none;align=left;verticalAlign=top;spacingLeft=4;spacingRight=4;overflow=hidden;rotatable=0;points=[[0,0.5],[1,0.5]];portConstraint=eastwest;whiteSpace=wrap;html=1;" vertex="1" parent="3E4DCQ-G_xNgGUAY1IOB-67">
          <mxGeometry y="78" width="140" height="26" as="geometry" />
        </mxCell>
        <mxCell id="3E4DCQ-G_xNgGUAY1IOB-72" value="+ user_id: FK&amp;nbsp;" style="text;strokeColor=none;fillColor=none;align=left;verticalAlign=top;spacingLeft=4;spacingRight=4;overflow=hidden;rotatable=0;points=[[0,0.5],[1,0.5]];portConstraint=eastwest;whiteSpace=wrap;html=1;" vertex="1" parent="3E4DCQ-G_xNgGUAY1IOB-67">
          <mxGeometry y="104" width="140" height="26" as="geometry" />
        </mxCell>
        <mxCell id="3E4DCQ-G_xNgGUAY1IOB-74" style="edgeStyle=orthogonalEdgeStyle;rounded=0;orthogonalLoop=1;jettySize=auto;html=1;exitX=1;exitY=0.5;exitDx=0;exitDy=0;entryX=-0.014;entryY=0.059;entryDx=0;entryDy=0;entryPerimeter=0;endArrow=ERone;endFill=0;startArrow=ERmany;startFill=0;" edge="1" parent="WIyWlLk6GJQsqaUBKTNV-1" source="3E4DCQ-G_xNgGUAY1IOB-58" target="3E4DCQ-G_xNgGUAY1IOB-63">
          <mxGeometry relative="1" as="geometry" />
        </mxCell>
        <mxCell id="3E4DCQ-G_xNgGUAY1IOB-75" value="1" style="edgeLabel;html=1;align=center;verticalAlign=middle;resizable=0;points=[];" vertex="1" connectable="0" parent="3E4DCQ-G_xNgGUAY1IOB-74">
          <mxGeometry x="-0.7375" y="-2" relative="1" as="geometry">
            <mxPoint x="-12" y="-13" as="offset" />
          </mxGeometry>
        </mxCell>
        <mxCell id="3E4DCQ-G_xNgGUAY1IOB-76" value="1" style="edgeLabel;html=1;align=center;verticalAlign=middle;resizable=0;points=[];" vertex="1" connectable="0" parent="3E4DCQ-G_xNgGUAY1IOB-74">
          <mxGeometry x="-0.7712" relative="1" as="geometry">
            <mxPoint x="141" y="-11" as="offset" />
          </mxGeometry>
        </mxCell>
        <mxCell id="3E4DCQ-G_xNgGUAY1IOB-77" value="1" style="edgeLabel;html=1;align=center;verticalAlign=middle;resizable=0;points=[];" vertex="1" connectable="0" parent="3E4DCQ-G_xNgGUAY1IOB-74">
          <mxGeometry x="-0.8661" y="1" relative="1" as="geometry">
            <mxPoint x="149" y="14" as="offset" />
          </mxGeometry>
        </mxCell>
        <mxCell id="3E4DCQ-G_xNgGUAY1IOB-78" value="M" style="edgeLabel;html=1;align=center;verticalAlign=middle;resizable=0;points=[];" vertex="1" connectable="0" parent="3E4DCQ-G_xNgGUAY1IOB-74">
          <mxGeometry x="0.3673" relative="1" as="geometry">
            <mxPoint x="-105" y="13" as="offset" />
          </mxGeometry>
        </mxCell>
        <mxCell id="3E4DCQ-G_xNgGUAY1IOB-79" value="" style="endArrow=ERmany;html=1;rounded=0;exitX=0.497;exitY=1.044;exitDx=0;exitDy=0;exitPerimeter=0;endFill=0;startArrow=ERone;startFill=0;" edge="1" parent="WIyWlLk6GJQsqaUBKTNV-1" source="3E4DCQ-G_xNgGUAY1IOB-60" target="3E4DCQ-G_xNgGUAY1IOB-67">
          <mxGeometry relative="1" as="geometry">
            <mxPoint x="440" y="380" as="sourcePoint" />
            <mxPoint x="480" y="370" as="targetPoint" />
          </mxGeometry>
        </mxCell>
        <mxCell id="3E4DCQ-G_xNgGUAY1IOB-80" value="1" style="edgeLabel;html=1;align=center;verticalAlign=middle;resizable=0;points=[];" vertex="1" connectable="0" parent="3E4DCQ-G_xNgGUAY1IOB-79">
          <mxGeometry x="-0.7266" y="-1" relative="1" as="geometry">
            <mxPoint x="-7" y="-8" as="offset" />
          </mxGeometry>
        </mxCell>
        <mxCell id="3E4DCQ-G_xNgGUAY1IOB-81" value="M" style="edgeLabel;html=1;align=center;verticalAlign=middle;resizable=0;points=[];" vertex="1" connectable="0" parent="3E4DCQ-G_xNgGUAY1IOB-79">
          <mxGeometry x="0.843" y="-1" relative="1" as="geometry">
            <mxPoint x="9" y="-1" as="offset" />
          </mxGeometry>
        </mxCell>
        <mxCell id="3E4DCQ-G_xNgGUAY1IOB-82" value="1" style="edgeLabel;html=1;align=center;verticalAlign=middle;resizable=0;points=[];" vertex="1" connectable="0" parent="3E4DCQ-G_xNgGUAY1IOB-79">
          <mxGeometry x="-0.6962" y="1" relative="1" as="geometry">
            <mxPoint x="6" y="-10" as="offset" />
          </mxGeometry>
        </mxCell>
        <mxCell id="3E4DCQ-G_xNgGUAY1IOB-83" value="1" style="edgeLabel;html=1;align=center;verticalAlign=middle;resizable=0;points=[];" vertex="1" connectable="0" parent="3E4DCQ-G_xNgGUAY1IOB-79">
          <mxGeometry x="0.4279" relative="1" as="geometry">
            <mxPoint x="-8" y="21" as="offset" />
          </mxGeometry>
        </mxCell>
      </root>
    </mxGraphModel>
  </diagram>
</mxfile>
